<svg xmlns="http://www.w3.org/2000/svg" width="1200" height="630" viewBox="0 0 1200 630">
  <defs>
    <linearGradient id="bg" x1="0" y1="0" x2="1" y2="1">
      <stop offset="0" stop-color="#090e6f"/>
      <stop offset=".55" stop-color="#1017aa"/>
      <stop offset="1" stop-color="#3242ff"/>
    </linearGradient>
    <pattern id="dots" width="8" height="8" patternUnits="userSpaceOnUse">
      <circle cx="1" cy="1" r=".7" fill="#fff7e6" opacity=".18"/>
    </pattern>
  </defs>
  <rect width="1200" height="630" fill="url(#bg)"/>
  <rect width="1200" height="630" fill="url(#dots)"/>
  <rect x="0" y="0" width="1200" height="18" fill="#ffd529"/>
  <g transform="translate(86 90)">
    <rect width="62" height="62" rx="15" fill="#080d2e" stroke="#fff7e6" stroke-width="2"/>
    <text x="31" y="42" text-anchor="middle" font-family="monospace" font-size="30" font-weight="700" fill="#ffd529">{ }</text>
    <text x="82" y="27" font-family="Arial, sans-serif" font-size="26" font-weight="700" fill="#fff7e6">Hacktoberfest</text>
    <text x="84" y="49" font-family="monospace" font-size="13" letter-spacing="6" fill="#ffd529">DDUGU</text>
  </g>
  <text x="86" y="260" font-family="Georgia, serif" font-size="84" fill="#fff7e6">Hacktoberfest</text>
  <text x="86" y="350" font-family="Georgia, serif" font-size="76" fill="#ffd529">Hack Day × DDUGU</text>
  <text x="90" y="420" font-family="Arial, sans-serif" font-size="26" fill="#fff7e6" opacity=".86">Build open. Learn together. Ship something real.</text>
  <g transform="translate(90 486)">
    <rect width="184" height="48" rx="24" fill="none" stroke="#ffd529" stroke-width="2"/>
    <text x="92" y="31" text-anchor="middle" font-family="monospace" font-size="15" fill="#ffd529">IN PERSON</text>
    <rect x="202" width="190" height="48" rx="24" fill="none" stroke="#ffd529" stroke-width="2"/>
    <text x="297" y="31" text-anchor="middle" font-family="monospace" font-size="15" fill="#ffd529">OCTOBER 2026</text>
  </g>
  <path d="M930 495c34-77 86-116 156-119 38-2 65 9 114 35v219H840c8-42 31-91 90-135Z" fill="#080d2e" opacity=".72"/>
  <g fill="#ffd529" opacity=".8"><circle cx="1000" cy="180" r="3"/><circle cx="1060" cy="112" r="2"/><circle cx="920" cy="250" r="2"/><circle cx="1120" cy="290" r="3"/></g>
</svg>
